<?xml version="1.0" standalone="no"?><!DOCTYPE svg PUBLIC "-//W3C//DTD SVG 1.1//EN" "http://www.w3.org/Graphics/SVG/1.1/DTD/svg11.dtd"><svg t="1737879866646" class="icon" viewBox="0 0 1138 1024" version="1.1" xmlns="http://www.w3.org/2000/svg" p-id="5279" xmlns:xlink="http://www.w3.org/1999/xlink" width="222.265625" height="200"><path d="M1118.067114 2.290828q-5.727069-2.290828-13.172259-2.290828T1090.577181 2.863535q-6.872483 2.863535-12.026845 6.299776l-5.154363 3.436242-512 257.71812Q51.686801 526.89038 29.923937 538.344519q-14.89038 8.017897-22.908277 20.61745t-6.872483 25.199105q1.145414 12.599553 8.017897 21.190156T26.487696 617.378076l337.897091 106.52349 19.472036-57.270694-290.935123-91.633109L986.344519 109.959732 486.944072 675.794183q-33.217002 37.798658-33.217003 81.324385v239.391499q1.145414 11.454139 9.736018 19.472036t20.61745 8.017897q12.026846 0 20.61745-8.017897t9.736017-19.472036V761.700224q0-10.308725 4.008949-21.190157T527.033557 723.901566L1060.796421 119.123043 914.183445 848.751678q-1.145414 4.581655-4.581655 4.581655l-328.733781-98.505593-19.472036 57.270694 21.762864 6.872483q285.208054 87.051454 310.407159 93.923938 9.163311 2.290828 17.181208 2.290827 22.908277 0 40.662192-14.89038t22.33557-38.944072l64.143177-318.425056q97.360179-478.782998 98.505593-489.091722l1.145414-4.581656q2.290828-14.89038 0-22.908277-3.436242-16.035794-19.472036-24.053691z" p-id="5280" fill="#ffffff"></path></svg>